<?xml version="1.0" encoding="UTF-8"?>
<svg id="Layer_1" data-name="Layer 1" xmlns="http://www.w3.org/2000/svg" viewBox="0 0 197.15 387.83">
  <defs>
    <style>
      .cls-1 {
        fill: none;
        stroke: #000;
        stroke-linecap: round;
        stroke-linejoin: round;
        stroke-width: 2px;
      }
    </style>
  </defs>
  <path id="head" class="cls-1" d="M112.05,52.98c-.98-5.44-.86-7.95,1.06-13.52,2.93-8.52,3.37-17.84,2.14-26.83-1.13-8.21-12.28-13.49-21.32-11.02-11.74,3.2-13.13,8.45-12.34,21.48.39,6.41.58,12.94,3.7,19.06,1.61,3.15.62,7.23.69,10.89l26.08-.05Z"/>
  <path id="left_leg" class="cls-1" d="M99.61,169.12h-35.39c-.62,3.22-1.29,6.43-1.89,9.64-4.02,21.38-2.51,42.14,3.51,62.95,3.26,11.25,6.73,22.63,7.49,34.4.64,9.91.36,19.89-3.31,29.45-2.18,5.68-1.24,11.67-.44,17.43,1.03,7.33,4,14.13,6.72,21.04,3.29,8.36,5.04,17.11,3.83,26.41-.74,5.69-4.01,9.39-7.16,13.45h-3.99c5.57,1.41,11.25,2,16.96,2.56,4.38.43,5.61-.09,5.94-4.56.27-3.65-.19-7.37.61-10.96.63-2.88.89-5.84-.13-8.46-3.5-9.01-2.4-18.23-1.96-27.48.38-8.04,3.13-15.84,2.52-23.95-1.08-14.37-.81-28.63,1.33-42.95,1.02-6.83,1.93-13.95.63-20.92-.87-4.66-1.36-9.35-.83-13.97.71-6.13-.86-12.93,4.38-17.98v-1c.58-3.98-.69-8.03.5-11.98l.69-33.12Z"/>
  <path id="right_leg" class="cls-1" d="M98.92,202.24l.5,13.97c3.7,3.83,3.15,8.85,3.4,13.48.4,7.32-.34,14.64-.76,21.96-.56,9.85,1.2,19.65,2.36,29.43,1.21,10.32.26,20.63-.07,30.94-.22,6.95,1.35,13.66,2.17,20.45,1.26,10.51,1.14,20.64-1.84,31.03-1.9,6.62.64,13.88.79,20.88.03,1.25,1.46,2.75,2.4,2.38,5.35-2.1,11.39.86,16.51-2.38h2c-2.57-3.07-6.86-4.18-8.14-8.94-2.39-8.86-1.46-17.4.69-25.98,2.05-8.18,6.83-15.37,8.11-23.94,1.03-6.89,2.76-13.99.14-20.4-4.23-10.36-3.59-21-3.08-31.51.51-10.56,3.88-20.83,6.94-30.9,6.63-21.8,7.82-43.55,3.52-65.96-.49-2.54-1.02-5.09-1.54-7.64h-33.39s-.69,33.12-.69,33.12Z"/>
  <path id="left_arm" class="cls-1" d="M1,198.22c1.07-3.92,3.84-2.89,6.49-2.25,1.87,4.97.93,10.15.9,15.22-.01,3.55,1.51,5.75,4.61,6.37,2.65.53,5.1-.12,6.55-3.33,2.95-6.51,5.84-13.05,8.92-19.49.72-1.5,1-2.76.55-4.52-1.71-6.69,1.49-12.27,5.52-16.85,8.96-10.19,16.31-21.26,19.21-34.56,2.17-9.99,8.01-18.91,8.13-29.41l-2.01-42.98c-6.07,1.02-8.84,4.85-11.65,9.95-4.76,8.65-4.27,17.89-4.71,27.05-.22,4.65-.6,9.3-.7,13.97-.07,3.23-.86,6.26-3.29,9.07-7.97,9.25-11.22,20.63-13.6,32.34-1.2,5.91-3.93,11.35-6.12,16.91-1.41,3.6-5.33,5.55-8.27,8.11-3.44,2.99-8.53,4.96-8.04,10.91"/>
  <path id="right_arm" class="cls-1" d="M196.15,198.22c-1.07-3.92-3.84-2.89-6.49-2.25-1.87,4.97-.93,10.15-.9,15.22.01,3.55-1.51,5.75-4.61,6.37-2.65.53-5.1-.12-6.55-3.33-2.95-6.51-5.84-13.05-8.92-19.49-.72-1.5-1-2.76-.55-4.52,1.71-6.69-1.49-12.27-5.52-16.85-8.96-10.19-16.31-21.26-19.21-34.56-2.17-9.99-8.01-18.91-8.13-29.41l2.01-42.98c6.07,1.02,8.84,4.85,11.65,9.95,4.76,8.65,4.27,17.89,4.71,27.05.22,4.65.6,9.3.7,13.97.07,3.23.86,6.26,3.29,9.07,7.97,9.25,11.22,20.63,13.6,32.34,1.2,5.91,3.93,11.35,6.12,16.91,1.41,3.6,5.33,5.55,8.27,8.11,3.44,2.99,8.53,4.96,8.04,10.91"/>
  <path id="torso" class="cls-1" d="M112.05,52.98c2.07.87,4.64,3.39,6.69,4.87,5.1,3.71,11,6.01,17.33,7.24l1.01,56.81c-3.79,5.75-4.5,12.39-5.49,18.96-1.45,9.62.25,18.99,2.14,28.26h0s-68.78,0-68.78,0h0c1.64-8.47,3-17.02,2.25-25.76-.68-7.98-2.12-15.79-5.98-22.96l-1.01-54.46c9.08-1.53,16.8-6.56,24.95-10.44.91-.43,1.56-1.24,1.53-2.47l25.36-.05Z"/>
</svg>